<svg viewBox="0 0 48 48" class="" role="presentation" focusable="false" xmlns:svg="http://www.w3.org/2000/svg" xmlns:xlink="http://www.w3.org/1999/xlink" id="FxSymbol0-0bd"><g><title></title><title>Hosting</title><path d="M41.53 32.91H21.89l-.43-1.49-1.6-6.22-.3-1.13.83-.87 7.24-7.81A14 14 0 0 0 12.77 25a9.41 9.41 0 0 0-3.13-.54 9.63 9.63 0 0 0-9.58 9.63 9.47 9.47 0 0 0 9.4 9.67h31.2a5.64 5.64 0 0 0 4.84-5.65c0-2.47-1.69-4.05-3.97-5.2z" fill="#bae5f7"></path><path fill="#046eab" d="M30.84 3.21h7.23v10.73h-7.23z"></path><path fill="#19457a" d="M46.19 31.83H22.71l-1.81-7.15H48l-1.81 7.15z"></path><path fill="#1590cf" d="M22.71 31.83l-1.81-7.15 9.94-10.74h7.22L22.71 31.83z"></path><path fill="#046eab" d="M46.19 31.83L35.35 21.1l4.52-5.37L48 24.68l-1.81 7.15z"></path><path fill="#bae5f7" d="M31.01 23.78l2.7-2.66 3.05 2.75-5.75-.09z"></path><path fill="none" d="M0 0h48v48H0z"></path></g></svg>