<svg viewBox="0 0 50 50" class="fxs-portal-svg" role="presentation" focusable="false" xmlns:svg="http://www.w3.org/2000/svg" xmlns:xlink="http://www.w3.org/1999/xlink" id="FxSymbol0-048"><g><title></title><path d="M0 44.4c0 1 .7 1.9 1.9 1.9h46.2c1 0 1.9-.7 1.9-1.9V11.3H0v33.1z" style="fill: rgb(160, 161, 162);"></path><path d="M48.1 3.7H1.9C.7 3.7 0 4.6 0 5.6v5.7h50V5.6c0-1-.7-1.9-1.9-1.9" style="fill: rgb(122, 122, 122);"></path><path d="M18.8 14.6h12.6v7.6H18.8z" style="fill: rgb(255, 255, 255);"></path><path d="M18.8 24.9h12.6v7.6H18.8zm15 0h12.6v7.6H33.8z" style="fill: rgb(252, 209, 22);"></path><path d="M33.8 14.6h12.6v7.6H33.8zm-30 0h12.6v7.6H3.8zm0 10.3h12.6v7.6H3.8z" style="fill: rgb(255, 255, 255);"></path><path d="M3.8 35.1h12.6v7.6H3.8zm15 0h12.6v7.6H18.8zm15 0h12.6v7.6H33.8z" style="fill: rgb(252, 209, 22);"></path><path opacity=".2" d="M1.9 3.7C1 3.7 0 4.6 0 5.6v38.8c0 1 1 1.9 1.9 1.9H4L43.6 3.7H1.9z" style="fill: rgb(255, 255, 255);"></path></g></svg>