<svg viewBox="0 0 16 16" class="fxs-portal-svg" role="presentation" focusable="false" xmlns:svg="http://www.w3.org/2000/svg" xmlns:xlink="http://www.w3.org/1999/xlink" id="FxSymbol0-011"><g><title></title><path d="M14.9 10.4l.4.4.4.5a1.4 1.4 0 0 1 .2.6 1.3 1.3 0 0 1 .1.6 3.6 3.6 0 0 1-.2 1 3.5 3.5 0 0 1-.5.8l-.8.5-1 .2a2 2 0 0 1-1.3-.4 5.4 5.4 0 0 1-2 1A5.4 5.4 0 0 1 8 16a5.7 5.7 0 0 1-2.2-.4 5.4 5.4 0 0 1-2-1 2 2 0 0 1-1.3.4l-1-.2-.8-.5a3.5 3.5 0 0 1-.5-.8 3.6 3.6 0 0 1-.2-1 1.3 1.3 0 0 1 .1-.6 1.4 1.4 0 0 1 .2-.6l.4-.5c.1-.2.3-.3.4-.4a1.7 1.7 0 0 0-.1-.7V9a7.6 7.6 0 0 1 .3-2.1A6.6 6.6 0 0 1 2.2 5l1.5-1.5a5.2 5.2 0 0 1 1.8-1 3 3 0 0 1 .2-1 2.2 2.2 0 0 1 .5-.8L7 .2 8 0l1 .2.8.5a2.2 2.2 0 0 1 .5.8 3 3 0 0 1 .2 1 5.2 5.2 0 0 1 1.8 1L13.8 5a6.6 6.6 0 0 1 .9 1.9A7.6 7.6 0 0 1 15 9v.7a1.7 1.7 0 0 0-.1.7zM1 12.5a1.3 1.3 0 0 0 .1.6l.3.5.5.3h1.2l.5-.3.3-.5a1.3 1.3 0 0 0 .1-.6 1.3 1.3 0 0 0-.1-.6l-.3-.5-.5-.3H1.9l-.5.3-.3.5a1.3 1.3 0 0 0-.1.6zM8 15a5.7 5.7 0 0 0 1.8-.3 4.8 4.8 0 0 0 1.6-.8l-.3-.7a1.5 1.5 0 0 1-.1-.7 3.6 3.6 0 0 1 .2-1 3.5 3.5 0 0 1 .5-.8l.8-.5 1-.2h.4a3.4 3.4 0 0 0 .1-1 5.7 5.7 0 0 0-.3-1.8 4.1 4.1 0 0 0-.7-1.5 4.9 4.9 0 0 0-1.2-1.3 3.8 3.8 0 0 0-1.5-.9l-.4.6c-.1.2-.3.3-.5.5l-.7.3H7.3l-.7-.3-.5-.5-.4-.6a3.8 3.8 0 0 0-1.5.9A4.9 4.9 0 0 0 3 5.7a5.1 5.1 0 0 0-.7 1.5A5.7 5.7 0 0 0 2 9a3.4 3.4 0 0 0 .1 1h1.1l.9.5a2.7 2.7 0 0 1 .7.8 4.3 4.3 0 0 1 .2 1.2 1.5 1.5 0 0 1-.1.7l-.3.7a4.8 4.8 0 0 0 1.6.8A5.7 5.7 0 0 0 8 15zM8 1h-.6l-.5.3-.3.5a1.3 1.3 0 0 0-.1.6 1.3 1.3 0 0 0 .1.6l.3.5.5.3h1.2l.5-.3.3-.5a1.3 1.3 0 0 0 .1-.6 1.3 1.3 0 0 0-.1-.6l-.3-.5-.5-.3zm5.5 13h.6l.5-.3.3-.5a1.3 1.3 0 0 0 .1-.6 1.3 1.3 0 0 0-.1-.6l-.3-.5-.5-.3h-1.2l-.5.3-.3.5a1.3 1.3 0 0 0-.1.6 1.3 1.3 0 0 0 .1.6l.3.5.5.3z"></path></g></svg>