<svg viewBox="0 0 20 20" class="" role="presentation" focusable="false" xmlns:svg="http://www.w3.org/2000/svg" xmlns:xlink="http://www.w3.org/1999/xlink" id="FxSymbol0-0d0"><g><title></title><path d="M0 0h20v20H0z" style="fill: rgb(0, 114, 198);"></path><path d="M17.196 11.952l-7.508 3.652-7.508-3.652 7.508-8.766z" style="fill: rgb(255, 255, 255);"></path><path d="M13.146 9.179l-3.722 4.419 3.722 3.024 3.722-3.024z" style="fill: rgb(89, 180, 217);"></path><path d="M13.146 9.179l-.532-.448-4.178 4.961 4.71 3.826 4.71-3.826-4.71-5.593-.532.632.532.448-.532.448 3.266 3.878-2.734 2.221-2.733-2.221 3.265-3.878-.532-.448-.532.448z" style="fill: rgb(0, 114, 198);"></path><path d="M9.91 13.396l3.246-3.247 3.226 3.226-3.247 3.247z" style="fill: rgb(0, 114, 198);"></path><path d="M13.415 11.9c-.047.023-.07.023-.14.047v2.396c.07.023.163.07.233.14l1.07-.861c-.023-.047-.023-.14-.023-.209s.023-.186.046-.256L13.415 11.9zm-1.768 1.256c.047.07.07.186.07.279 0 .07-.023.163-.047.233l1.07.861c.047-.047.14-.093.209-.14v-2.442c-.047-.023-.07-.023-.093-.047l-1.209 1.256z" style="fill: rgb(255, 255, 255);"></path><path d="M13.136 9.179l-3.722 4.42 3.722 3.024 3.722-3.024-3.722-4.42zm2.023 4.861a.57.57 0 0 1-.372-.14l-1.07.884a.35.35 0 0 1 .023.163.6.6 0 0 1-.605.605.587.587 0 0 1-.605-.605c0-.047 0-.093.023-.14l-1.14-.884a.532.532 0 0 1-.326.093.6.6 0 0 1-.605-.605.6.6 0 0 1 .884-.535l1.186-1.303a.846.846 0 0 1-.047-.256.6.6 0 0 1 .605-.605c.349 0 .605.256.605.605a.548.548 0 0 1-.07.279L14.81 12.9a.708.708 0 0 1 .302-.07.6.6 0 0 1 .605.605.562.562 0 0 1-.558.605z" style="fill: rgb(255, 255, 255);"></path></g></svg>