<svg viewBox="0 0 15.5 15.5" class="msportalfx-svg-palette-inherit" role="presentation" focusable="false" xmlns:svg="http://www.w3.org/2000/svg" xmlns:xlink="http://www.w3.org/1999/xlink" id="FxSymbol0-02d"><g><title></title><path d="M15.5 5.4l-.5.5-.5.3-.5.3h-1.2l-3 3a1.3 1.3 0 0 1 .1.6 1.3 1.3 0 0 1 .1.6 2.8 2.8 0 0 1-.1.9l-.3.8-.5.7-.6.7-3-3-4.4 4.4-1.1.3.4-1L4.8 10l-3-3 .3-.3a3.8 3.8 0 0 1 1.3-.9l1.5-.2a2.5 2.5 0 0 1 1.2.2l3-3a.9.9 0 0 1-.1-.5 1.5 1.5 0 0 1 .1-.7 1.4 1.4 0 0 1 .2-.6l.4-.5.5-.5zm-2.2.1a1.2 1.2 0 0 0 .8-.2l-3.9-3.8a1.9 1.9 0 0 0-.2.8.6.6 0 0 0 .1.4.6.6 0 0 0 .1.4L6.3 6.9H4l-.8.4 5.3 5.2a2 2 0 0 0 .4-.8 1.9 1.9 0 0 0 .1-.8v-.4c0-.1-.1-.2-.1-.4v-.5c-.1-.1-.1-.3-.2-.4l3.9-3.8h.8z"></path></g></svg>