<svg viewBox="0 0 50 50" class="fxs-portal-svg" role="presentation" focusable="false" xmlns:svg="http://www.w3.org/2000/svg" xmlns:xlink="http://www.w3.org/1999/xlink" id="FxSymbol0-067"><g><title></title><path d="M47.4 17.5l-3.9-3.9-1.7-1.6H13v38h36V19.2z" style="fill: rgb(89, 180, 217);"></path><path opacity=".8" d="M41 14H15v34h32V20h-6z" style="fill: rgb(255, 255, 255);"></path><path d="M20 39.1c0-.5.4-.9.9-.9h12.4c.5 0 .9.4.9.9s-.4.9-.9.9H20.9c-.5 0-.9-.4-.9-.9m0-6.2c0-.5.4-.9.9-.9h20.5c.5 0 .9.4.9.9s-.4.9-.9.9H20.9c-.5 0-.9-.4-.9-.9m0-5.8c0-.5.4-.9.9-.9h20.5c.5 0 .9.4.9.9s-.4.9-.9.9H20.9c-.5 0-.9-.4-.9-.9M3 0h29v6H3z" style="fill: rgb(89, 180, 217);"></path><path d="M1 0h6v40H1z" style="fill: rgb(89, 180, 217);"></path><path opacity=".8" d="M5 2H3v36h4V6h23V2z" style="fill: rgb(255, 255, 255);"></path><path d="M9 6h29v6H9z" style="fill: rgb(89, 180, 217);"></path><path d="M7 6h6v38H7z" style="fill: rgb(89, 180, 217);"></path><path opacity=".8" d="M11 8H9v34h4V12h23V8z" style="fill: rgb(255, 255, 255);"></path></g></svg>