<svg viewBox="-0.5 -0.5 50 50" class="fxs-portal-svg" role="presentation" focusable="false" xmlns:svg="http://www.w3.org/2000/svg" xmlns:xlink="http://www.w3.org/1999/xlink" id="FxSymbol0-065"><g><title></title><path d="M49.5 32.663c0-3.224-2.589-5.837-5.787-5.837-.241 0-.476.019-.707.049.355-1.311.55-2.69.55-4.115 0-5.003-2.35-9.442-5.986-12.289l-5.652 7.279H38.6L24.459 32.718l4.662-10.773H23.06l5.471-14.729c-.136-.004-.269-.021-.406-.021-6.808 0-12.581 4.447-14.63 10.617a10.446 10.446 0 0 0-3.447-.592C4.221 17.22-.5 21.984-.5 27.86c0 5.877 4.721 10.64 10.548 10.64l.014-.001v.001h34.124l-.007-.026c2.978-.238 5.321-2.746 5.321-5.811z" style="fill: rgb(89, 180, 217);"></path></g></svg>