<svg viewBox="0 0 50 50" class="fxs-portal-svg" role="presentation" focusable="false" xmlns:svg="http://www.w3.org/2000/svg" xmlns:xlink="http://www.w3.org/1999/xlink" id="FxSymbol0-108"><g><title></title><path fill-rule="evenodd" d="M13 37V20.149C5.664 21.129 0 27.396 0 35c0 8.284 6.716 15 15 15 7.604 0 13.871-5.664 14.851-13H13z" style="fill: rgb(57, 153, 198);"></path><path fill-rule="evenodd" d="M32.5 0C42.295 0 50 7.705 50 17.5S42.295 35 32.5 35H15V17.5C15 7.705 22.705 0 32.5 0z" style="fill: rgb(89, 180, 217);"></path><path fill-rule="evenodd" d="M5 31h4v4H5zm4 12h4v4H9zm12-4h4v4h-4zm0-24h4v12h-4V15zm8 4h4v8h-4v-8zm8-8h4v16h-4V11z" style="fill: rgb(255, 255, 255);"></path></g></svg>