<svg viewBox="0 0 48 48" class="" role="presentation" focusable="false" xmlns:svg="http://www.w3.org/2000/svg" xmlns:xlink="http://www.w3.org/1999/xlink" id="FxSymbol0-0bc"><g><title></title><path fill="#046eab" d="M16.72 11h9.25v13.87h-9.25z"></path><path fill="#19457a" d="M36.37 48H6.31L4 38.75h34.69L36.37 48z"></path><path fill="#1590cf" d="M6.31 48L4 38.75l12.72-13.87h9.25L6.31 48z"></path><path fill="#046eab" d="M36.37 48L22.5 34.13l5.78-6.94 10.41 11.56L36.37 48z"></path><circle cx="35.77" cy="6.6" r="6.6" fill="#6ec4e9"></circle><path d="M38 32.52l-8.25-9.1v-8.54a1.52 1.52 0 0 1 .66-.15h1.1a1.53 1.53 0 0 1 .69.16l3.58 3.49 3.58-3.49a1.53 1.53 0 0 1 .64-.16h3.4a1.54 1.54 0 0 1 1.54 1.54V31a1.54 1.54 0 0 1-1.54 1.54z" fill="#6ec4e9"></path><path fill="none" d="M0 0h48v48H0z"></path></g></svg>