<svg viewBox="0 0 50 50" class="fxs-portal-svg" role="presentation" focusable="false" xmlns:svg="http://www.w3.org/2000/svg" xmlns:xlink="http://www.w3.org/1999/xlink" id="FxSymbol0-034"><g><title></title><path d="M42.3.3L28.6.8 0 29.4l20.3 20.3 28.6-28.6L50 8 42.3.3zm1.1 10.6c-1.1 1.1-2.9 1.1-4 0s-1.1-2.9 0-4 2.9-1.1 4 0 1.1 2.9 0 4z" style="fill: rgb(128, 73, 152);"></path><path opacity=".1" d="M0 29.4l20.3 20.3 4.6-4.5V4.5z" style="fill: rgb(255, 255, 255);"></path><path opacity=".3" d="M45.1 5.2c-2-2-5.3-2-7.3 0s-2 5.3 0 7.3 5.3 2 7.3 0 2-5.3 0-7.3zm-1.7 5.7c-1.1 1.1-2.9 1.1-4 0s-1.1-2.9 0-4 2.9-1.1 4 0 1.1 2.9 0 4z" style="fill: rgb(30, 30, 30);"></path></g></svg>