<svg viewBox="0 0 50 50" class="fxs-portal-svg" role="presentation" focusable="false" xmlns:svg="http://www.w3.org/2000/svg" xmlns:xlink="http://www.w3.org/1999/xlink" id="FxSymbol0-064"><g><title></title><path d="M36.4 0H17.6l-8 25.2c-.2.6.1 1 .7 1h8.8c.3 0 .5.1.6.2.2.2.2.5.1.8l-9.1 22.1c-.2.6-.1.7.3.2L40.1 17c.4-.5.2-.9-.4-.9H28.5c-.6 0-.9-.4-.6-1L36.4 0z" style="fill: rgb(252, 209, 22);"></path><path opacity=".3" d="M39.7 16.1h-5.8L12.3 48.5 40.1 17c.4-.5.3-.9-.4-.9zM36.4 0h-5.5l-7.8 16.1h5.2c-.5-.1-.7-.5-.4-1L36.4 0z" style="fill: rgb(255, 140, 0);"></path></g></svg>