<svg viewBox="0 0 50 50" class="fxs-portal-svg" role="presentation" focusable="false" xmlns:svg="http://www.w3.org/2000/svg" xmlns:xlink="http://www.w3.org/1999/xlink" id="FxSymbol0-049"><g><title></title><path d="M0 44.8c0 1 .8 1.9 1.8 1.9h46.3c1 0 1.9-.8 1.9-1.9V11.7H0v33.1z" style="fill: rgb(160, 161, 162);"></path><path d="M48.1 4H1.8C.8 4 0 4.9 0 5.9v5.7h50V5.9c0-1-.8-1.9-1.9-1.9" style="fill: rgb(122, 122, 122);"></path><path d="M3.7 15.1h12v27.8h-12zm15.3 0h12v27.8H19zm15.3 0h12v27.8h-12z" style="fill: rgb(128, 73, 152);"></path><path opacity=".2" d="M2 4C.9 4 0 4.9 0 6v38.6c0 1.1.9 2 2 2h2.2L43.6 4H2z" style="fill: rgb(255, 255, 255);"></path></g></svg>