<svg viewBox="0 0 50 50" class="fxs-portal-svg" role="presentation" focusable="false" xmlns:svg="http://www.w3.org/2000/svg" xmlns:xlink="http://www.w3.org/1999/xlink" id="FxSymbol0-043"><g><title></title><path d="M37.494 47.9c-2.236 0-4.5-1.717-4.5-5 0-1.544.562-2.935 1.547-4H9.994v-29c0-4.561 3.439-8 8-8h27.614l-1.707 1.707c-.921.921-1.907 3.268-1.907 5.293v33c0 2.768-1.179 6-4.5 6z" style="fill: rgb(255, 255, 255);"></path><path opacity=".2" d="M37.494 47.9c-2.236 0-4.5-1.717-4.5-5 0-1.544.562-2.935 1.547-4H9.994v-29c0-4.561 3.439-8 8-8h27.614l-1.707 1.707c-.921.921-1.907 3.268-1.907 5.293v33c0 2.768-1.179 6-4.5 6z" style="fill: rgb(89, 180, 217);"></path><path d="M43.994.9h-26c-5 0-9 4-9 9v28h-1.5c-3 0-5.5 2.5-5.5 5.5s2.5 5.5 5.5 5.5h30.5l.8-.1c3.3-.5 4.2-4 4.2-5.9v-34h5.6c.2-.7.4-1.4.4-2.3 0-3.1-2.2-5.7-5-5.7zm-3 8v33c0 1.5-.5 5-3.5 5-1.7 0-3.5-1.3-3.5-4 0-2.5 1.7-4.3 4-4.9v-.1h-27v-28c0-4 3-7 7-7h25.2c-1.1 1.1-2.2 3.7-2.2 6z" style="fill: rgb(57, 153, 198);"></path><path d="M25.994 12c5.459 0 9.9 4.441 9.9 9.9s-4.441 9.9-9.9 9.9c-5.459 0-9.9-4.441-9.9-9.9s4.441-9.9 9.9-9.9m0-2c-6.572 0-11.9 5.328-11.9 11.9s5.328 11.9 11.9 11.9 11.9-5.328 11.9-11.9S32.566 10 25.994 10z" style="fill: rgb(128, 73, 152);"></path><path d="M31.216 23.74l-4.222-2.413V14.9a1 1 0 0 0-2 0v7c0 .042.019.078.024.119.009.073.019.143.043.213.019.052.044.096.07.144a.98.98 0 0 0 .126.188c.034.038.074.068.114.1.042.035.073.08.123.108l4.722 2.699a1 1 0 0 0 1-1.731z" style="fill: rgb(128, 73, 152);"></path></g></svg>