<svg viewBox="0 0 50 50" class="fxs-portal-svg" role="presentation" focusable="false" xmlns:svg="http://www.w3.org/2000/svg" xmlns:xlink="http://www.w3.org/1999/xlink" id="FxSymbol0-050"><g><title></title><path d="M47.993 4H2.007C.898 4 0 4.869 0 5.943v37.99C0 45.074.898 46 2.007 46h45.986C49.102 46 50 45.074 50 43.932V5.943C50 4.869 49.101 4 47.993 4z" style="fill: rgb(0, 114, 198);"></path><path d="M2.007 44L2 13h46v30.993l-.007.007z" style="fill: rgb(57, 153, 198);"></path><path opacity=".6" d="M2.007 44L2 13h46v30.993l-.007.007z" style="fill: rgb(255, 255, 255);"></path><path d="M18 16v25H5V16zm25 2v7H23v-7h20m2-2H21v11h24V16zm-2 16v7H23v-7h20m2-2H21v11h24V30z" style="fill: rgb(128, 73, 152);"></path></g></svg>