<svg viewBox="0 0 300 250" class="" role="presentation" focusable="false" xmlns:svg="http://www.w3.org/2000/svg" xmlns:xlink="http://www.w3.org/1999/xlink" id="FxSymbol0-0a5"><g><title></title><path d="M25 35.5V216c0 19 42 34 93.5 34V35.5H25z" style="fill: rgb(57, 153, 198);"></path><path d="M117.5 250h1.5c52 0 93.5-15 93.5-34V35.5h-95V250z" style="fill: rgb(89, 180, 217);"></path><path d="M212.5 35.5c0 18.5-42 34-93.5 34S25 54 25 35.5s42-34 93.5-34 94 15.5 94 34" style="fill: rgb(255, 255, 255);"></path><path d="M193.5 33.5C193.5 46 160 56 119 56S44 46 44 33.5 77.5 11 118.5 11s75 10 75 22.5" style="fill: rgb(127, 186, 0);"></path><path d="M177.5 47c10-4 15.5-8.5 15.5-13.5C193 21 159.5 11 118.5 11S44 21 44 33.5c0 5 6 10 15.5 13.5 13.5-5.5 35-8.5 59-8.5s45.5 3.5 59 8.5" style="fill: rgb(184, 212, 50);"></path><path d="M144 107v120.5c0 12.5 28 22.5 62.5 22.5V107H144z" style="fill: rgb(0, 114, 198);"></path><path d="M205.5 250h1c34.5 0 62.5-10 62.5-22.5V107h-63.5v143z" style="fill: rgb(0, 114, 198);"></path><path opacity=".15" d="M205.5 250h1c34.5 0 62.5-10 62.5-22.5V107h-63.5v143z" style="fill: rgb(255, 255, 255);"></path><path d="M269 107c0 12.5-28 22.5-62.5 22.5S144 119.5 144 107s28-22.5 62.5-22.5S269 94.5 269 107" style="fill: rgb(255, 255, 255);"></path><path d="M256 105.5c0 8-22.5 15-49.5 15s-49.5-6.5-49.5-15c0-8 22.5-15 49.5-15s49.5 7 49.5 15" style="fill: rgb(127, 186, 0);"></path><path d="M245.5 114.5c6.5-2.5 10.5-5.5 10.5-9 0-8-22.5-15-49.5-15-27.5 0-49.5 6.5-49.5 15 0 3.5 4 6.5 10.5 9 9-3.5 23.5-6 39.5-6 15 0 29 2.5 38.5 6" style="fill: rgb(184, 212, 50);"></path><polygon points="240.5,180 171,237.5 198,193 174.5,193 244,136 217,180" style="fill: rgb(255, 255, 255);"></polygon></g></svg>