<svg viewBox="0 0 23 32" class="" role="presentation" focusable="false" xmlns:svg="http://www.w3.org/2000/svg" xmlns:xlink="http://www.w3.org/1999/xlink" id="FxSymbol0-04f"><g><title></title><path fill="#7ac3e1" d="M21.794 22.863s-2.539 5.234-9.468 8.097c0 0-.407.126-.793.254v.006h-.02v-.006c-.386-.128-.793-.254-.793-.254-4.076-1.628-7.391-4.442-9.602-8.012l-.049-.085a5.787 5.787 0 0 1-.676-2.503V6.938a.738.738 0 0 1 .877-.867l-.005-.001a9.28 9.28 0 0 0 9.592-5.058l.024-.054a1.028 1.028 0 0 1 .639-.185h-.002l.049-.001c.224 0 .431.068.603.186l-.004-.002c1.445 3.1 4.535 5.21 8.118 5.21.464 0 .92-.035 1.365-.104l-.05.006a.738.738 0 0 1 .872.873l.001-.005v13.41a5.867 5.867 0 0 1-.69 2.549l.015-.032z"></path><path fill="#54a5cb" d="M12.326 30.96s-.407.126-.793.254v.006h-.02v-.006c-.386-.128-.793-.254-.793-.254-2.652-1.104-4.918-2.626-6.829-4.508l.003.003 15.28-20.38a10.929 10.929 0 0 0 2.476-.01l-.051.005a.738.738 0 0 1 .872.873l.001-.005v13.41a5.866 5.866 0 0 1-.692 2.546l.015-.031s-2.539 5.237-9.468 8.1z"></path><path d="M11.452 20.579h.006a1.89 1.89 0 1 1-1.89 1.89v-.003c0-1.041.843-1.886 1.884-1.887zM9.558 9.169h3.774l-1.057 9.096h-1.732z" style="fill: rgb(255, 255, 255);"></path></g></svg>