<svg viewBox="0 0 16 16" class="fxs-portal-svg" role="presentation" focusable="false" xmlns:svg="http://www.w3.org/2000/svg" xmlns:xlink="http://www.w3.org/1999/xlink" id="FxSymbol0-068"><g><title></title><path d="M14.8 10H5.4c-.5 0-.9-.6-.9-1.1s.4-.9.9-.9h9.4c.5 0 .9.4.9.9s-.4 1.1-.9 1.1zm0-6H5.4c-.5 0-.9-.6-.9-1.1s.4-.9.9-.9h9.4c.5 0 .9.4.9.9S15.3 4 14.8 4zm0 12H5.4c-.5 0-.9-.6-.9-1.1s.4-.9.9-.9h9.4c.5 0 .9.4.9.9s-.4 1.1-.9 1.1z"></path><circle cx="1.5" cy="2.5" r="1.5"></circle><circle cx="1.5" cy="8.5" r="1.5"></circle><circle cx="1.5" cy="14.5" r="1.5"></circle></g></svg>