<svg viewBox="0 0 16 16" class="msportalfx-svg-palette-inherit" role="presentation" focusable="false" xmlns:svg="http://www.w3.org/2000/svg" xmlns:xlink="http://www.w3.org/1999/xlink" id="FxSymbol0-00f"><g><title></title><path d="M16 2.6a3 3 0 0 1-.2 1 2.4 2.4 0 0 1-.6.9L4.9 14.8 0 16l1.2-4.9L11.5.8a2.4 2.4 0 0 1 .9-.6l1-.2 1 .2a1.6 1.6 0 0 1 .8.6 1.6 1.6 0 0 1 .6.8 3.6 3.6 0 0 1 .2 1zm-14.6 12l2.5-.6a1.4 1.4 0 0 0-.2-.7l-.4-.6-.6-.4-.7-.2zm1.1-3.4A2.8 2.8 0 0 1 4 12a2.8 2.8 0 0 1 .8 1.5L13.3 5 11 2.7zM14 4.3l.4-.4.3-.3c.1-.2.2-.3.2-.5a.7.7 0 0 0 .1-.5 1.3 1.3 0 0 0-.1-.6 1 1 0 0 0-.4-.5 1 1 0 0 0-.5-.4h-1.1l-.5.2-.3.3-.4.4z"></path></g></svg>