<svg viewBox="0 0 19.723 20" class="" role="presentation" focusable="false" xmlns:svg="http://www.w3.org/2000/svg" xmlns:xlink="http://www.w3.org/1999/xlink" id="FxSymbol0-001"><g><title></title><path d="M3.578 0a1.766 1.766 0 0 0-.744.166A2.153 2.153 0 0 0 2.217.6a2.13 2.13 0 0 0-.433.621 1.762 1.762 0 0 0-.165.739V4H0v1.418h1.619v6.589H0v1.415h1.619v2.044a1.893 1.893 0 0 0 .154.762 1.969 1.969 0 0 0 .42.623 1.944 1.944 0 0 0 .625.421 1.91 1.91 0 0 0 .75.152h7.459v-1.415H6.485V1.416h9.13v6h1.415V0zm1.5 16.009H3.7a.645.645 0 0 1-.26-.051.686.686 0 0 1-.212-.144.711.711 0 0 1-.145-.214 1.861 1.861 0 0 1-.047-.387v-1.791h.7v-1.415h-.7V5.418h.7V4h-.7V2.084a.493.493 0 0 1 .054-.22.88.88 0 0 1 .39-.391.5.5 0 0 1 .22-.057h1.382z"></path><path d="M19.514 8.63H8.826v1.894l.061.061 3.454 4.442V20h3.867v-4.973l3.454-4.442.061-.061V8.63zm-4.637 5.755l-.061.061v4.164h-1.085v-4.168l-.061-.061-3.376-4.364h7.961z"></path></g></svg>