<svg viewBox="0 0 50 50" class="fxs-portal-svg" role="presentation" focusable="false" xmlns:svg="http://www.w3.org/2000/svg" xmlns:xlink="http://www.w3.org/1999/xlink" id="FxSymbol0-04e"><g><title></title><path d="M49.662 15.075c.499-.5.399-1.3 0-1.8l-2.396-2.4L36.483.375c-.499-.5-1.198-.5-1.697 0-.499.5-.599 1.3 0 1.8l11.283 11.1c.499.5.499 1.3 0 1.8l-11.482 11.5a1.27 1.27 0 0 0 0 1.8c.499.5 1.298.4 1.697 0l10.684-10.6.1-.1 2.594-2.6zm-49.324 0c-.499-.5-.399-1.3 0-1.8l2.396-2.4L13.517.375c.499-.5 1.198-.5 1.697 0 .499.5.599 1.3 0 1.8l-11.083 11.1a1.27 1.27 0 0 0 0 1.8l11.283 11.5c.499.5.499 1.3 0 1.8s-1.298.4-1.697 0l-10.883-10.5-.1-.1-2.396-2.7z" style="fill: rgb(57, 153, 198);"></path><path d="M18.26 14c0 1.9-1.598 3.3-3.295 3.3S11.47 15.7 11.47 14s1.398-3.3 3.495-3.3c1.997 0 3.295 1.6 3.295 3.3zm10.085 0c0 1.9-1.598 3.3-3.295 3.3s-3.495-1.6-3.495-3.3 1.598-3.3 3.495-3.3 3.295 1.6 3.295 3.3z" style="fill: rgb(127, 186, 0);"></path><ellipse cx="35.234" cy="14" rx="3.295" ry="3.3" style="fill: rgb(127, 186, 0);"></ellipse><path d="M42.717 23.566c-6.612-.729-7.718-3.577-7.718-3.577S33.511 23.736 24 23.736v15.372c0 1.859 1.033 3.599 2.463 5.121C29.706 47.678 35 50 35 50s11-4.819 11-10.893V23.736c-1.223 0-2.311-.062-3.283-.17z" style="fill: rgb(127, 186, 0);"></path><path opacity=".4" d="M37.592 29.966l4.95-6.293c-6.55-.722-7.646-3.544-7.646-3.544S33.423 23.841 24 23.841v15.228c0 1.841 1.023 3.566 2.44 5.073l3.659-4.651 7.493-9.525z" style="fill: rgb(184, 212, 50);"></path><path d="M39.499 34.014H39V32a4 4 0 0 0-8 0v2.014h-.499a.506.506 0 0 0-.501.51v5.981c0 .281.224.51.501.51H39.5a.506.506 0 0 0 .501-.51v-5.98a.508.508 0 0 0-.502-.511zM35 30c1.103 0 2 .897 2 2v2.014h-4V32c0-1.103.897-2 2-2z" style="fill: rgb(255, 255, 255);"></path></g></svg>