<svg viewBox="-927 509 64 64" class="" role="presentation" focusable="false" xmlns:svg="http://www.w3.org/2000/svg" xmlns:xlink="http://www.w3.org/1999/xlink" id="FxSymbol0-0a1"><g><title></title><path d="M-865.6 547.1l-23.3 23.3c-3.4 3.4-8.9 3.4-12.2 0l-23.3-23.3c-3.4-3.4-3.4-8.9 0-12.2l23.3-23.3c3.4-3.4 8.9-3.4 12.2 0l23.3 23.3c3.5 3.3 3.5 8.8 0 12.2z" fill="#326891"></path><path d="M-890.9 572c-3.3 1.7-7.4 1.2-10.1-1.6l-23.3-23.3c-3.4-3.4-3.4-8.9 0-12.2l18.7-18.7 14.7 55.8z" opacity=".1" style="fill: rgb(255, 255, 255);"></path><path d="M-900.9 570.4l-23.3-23.3c-3.4-3.4-3.4-8.9 0-12.2l23.3-23.3c2.7-2.7 6.8-3.3 10-1.6l-10 60.4z" opacity=".1" style="fill: rgb(255, 255, 255);"></path><g style="fill: rgb(255, 255, 255);"><path d="M-892.2 560.4c-2.5 0-3.2-2-3.6-2.7-.5-1.2-.6-5.7-.5-9.4 0-.3.2-.5.5-.5s.5.2.5.5c-.1 4.3.1 8.2.4 9 .5 1.3 1.4 2.5 3.7 2 2.2-.5 3-1.3 3.4-3.4.3-1.7.8-6.2.9-7.2 0-.3.3-.5.5-.4.3 0 .5.3.4.5-.1 1-.6 5.6-.9 7.3-.4 2.5-1.6 3.6-4.1 4.2-.4 0-.8.1-1.2.1zm-13.3-9.6c-.2 0-.4 0-.6-.1-3.8-1.3-6.3-14.4-6.3-16.1-.2-3.5.7-6 2.7-7.4 3.9-2.8 10.4-.1 10.7 0 .2.1.4.4.3.6-.1.2-.4.4-.6.3-.1 0-6.3-2.5-9.8-.1-1.7 1.2-2.5 3.4-2.3 6.6.1 2.3 2.7 14.2 5.7 15.2.2.1.8.3 1.6-.8 1.6-1.9 3-3.4 3.1-3.4.2-.2.5-.2.7 0 .2.2.2.5 0 .7 0 0-1.4 1.5-3 3.4-.9.9-1.6 1.1-2.2 1.1zm20.8-4c-.1 0-.2 0-.3-.1-.2-.1-.3-.4-.1-.7 4.4-6.6 6-14.6 4.7-16.3-3.9-5-10.7-2.9-11.3-2.7h-.1c-.2.1-.5 0-.6-.3-.1-.2 0-.5.2-.6h.2c1.2-.4 8.2-2.3 12.4 3 1.9 2.4-.4 11.2-4.6 17.4-.2.2-.4.3-.5.3z"></path><path d="M-884.5 549.9c-.8 0-1.4-.1-1.8-.4-.4-.3-.5-.6-.5-.8-.1-2 1-2.4 1.6-2.5-.1-.1-.2-.3-.3-.4-.3-.4-.8-1-1.1-1.8-.1-.1-.2-.4-.4-.8-1.1-1.9-3.3-5.9-1.9-8 .7-.9 2-1.3 3.9-1.1-.6-1.7-3.3-7.2-9.7-7.3-1.9 0-3.5.6-4.7 1.8-2.7 2.7-2.6 7.6-2.6 7.7 0 .3-.2.5-.5.5s-.5-.2-.5-.5c0-.2-.1-5.4 2.9-8.4 1.4-1.4 3.2-2.1 5.4-2.1 7.9.1 10.7 7.6 10.8 8.6 0 .5-.3.6-.4.6h-.2c-1.9-.3-3.1-.1-3.6.6-1.1 1.6 1 5.3 1.9 6.9.2.4.4.7.5.9.3.7.7 1.2 1 1.6.3.3.5.6.6 1 0 .1.6.9 3.9.2.8-.2 1.3 0 1.5.4.3.9-1.4 2-2.3 2.4-1 .6-2.4.9-3.5.9zm-1.4-1.2c.3.4 2.9.3 4.3-.3.8-.4 1.3-.8 1.6-1h-.1c-2.1.4-3.6.4-4.4-.2-.1 0-.1-.1-.2-.1s-.2.1-.2.1c-.6.1-1.1.2-1 1.5zm-13.7 2.6c-.5 0-1.1-.1-1.6-.2-.6-.1-1.6-.6-1.6-1.3 0-.8 1.2-1.1 1.6-1.1 1.6-.3 1.7-.5 2.2-1.1.1-.2.3-.4.6-.7.8-.9 1.5-.6 1.9-.5.5.2.9.7 1.1 1.3.2.6.1 1.1-.2 1.5-.9 1.4-2.3 2.1-4 2.1zm-2.1-1.5c.1.1.4.3.7.3 1.4.3 3.3.4 4.6-1.5.2-.2.1-.5.1-.7-.1-.3-.3-.6-.6-.7-.3-.1-.5-.2-.8.2-.2.3-.4.5-.5.6-.6.8-.9 1.1-2.8 1.4-.4.3-.6.4-.7.4z"></path><path d="M-898 547.6c-.2 0-.4-.2-.5-.4v-.2c-1.2 0-2.4-.5-3.3-1.5-1.1-1.2-1.6-2.8-1.4-4.5.3-1.8.2-3.4.1-4.3v-.5c0-.8 2.4-1.9 3.8-2 1.7-.2 2.9.6 3.2 2.2.9 4.3.1 6.1-.5 7.5-.1.3-.2.5-.3.7l-.1.2c-.3.9-.6 1.6-.5 2.2 0 .4-.2.6-.5.6zm-4.2-11.2v.3c.1.9.2 2.5-.1 4.4-.2 1.4.2 2.7 1.1 3.7.7.8 1.7 1.2 2.7 1.2.1-.5.3-1 .5-1.5l.1-.2c.1-.3.2-.5.3-.8.6-1.3 1.3-3 .5-6.9-.2-.8-.6-1.2-1.2-1.4-1.4-.2-3.4.8-3.9 1.2z"></path><path d="M-899.3 536.2c0 .2.3.6.7.7.4.1.8-.3.8-.5s-.3-.4-.7-.4c-.4 0-.8 0-.8.2zm13.2-.3c0 .2-.3.6-.7.7-.4.1-.8-.3-.8-.5s.3-.4.7-.4c.4-.1.8 0 .8.2zm.6 9.7c-.1 0-.2 0-.3-.1-.2-.1-.3-.4-.1-.7 1-1.5.8-3.1.6-4.6-.1-.6-.2-1.3-.1-1.9 0-.7.1-1.2.2-1.7.1-.6.2-1.2.1-1.9 0-.3.2-.5.5-.5s.5.2.5.5c0 .8-.1 1.4-.2 2.1-.1.5-.2 1-.2 1.6 0 .6.1 1.2.1 1.8.2 1.6.4 3.4-.8 5.2 0 .1-.1.2-.3.2z"></path></g></g></svg>