<svg viewBox="0 0 200 200" class="" role="presentation" focusable="false" xmlns:svg="http://www.w3.org/2000/svg" xmlns:xlink="http://www.w3.org/1999/xlink" id="FxSymbol0-0a7"><g><title></title><path d="M192.1 119.1l-73 73c-10.6 10.6-27.7 10.6-38.2 0l-73-73c-10.6-10.6-10.6-27.7 0-38.2l73-73c10.6-10.6 27.7-10.6 38.2 0l73 73c10.5 10.5 10.5 27.7 0 38.2z" style="fill: rgb(0, 114, 198);"></path><path d="M37.1 148.3L7.9 119.1c-10.6-10.6-10.6-27.7 0-38.2l73-73c10.6-10.6 27.7-10.6 38.2 0l17.7 17.7-99.7 122.7z" opacity=".15" style="fill: rgb(255, 255, 255);"></path><path d="M79.4 26.8v40c0 4.2 9.3 7.5 20.8 7.5V26.8H79.4z" style="fill: rgb(127, 186, 0);"></path><path d="M99.9 74.3h.3c11.5 0 20.8-3.4 20.8-7.5v-40H99.9v47.5z" fill="#bad80a"></path><path d="M121 26.8c0 4.2-9.3 7.5-20.8 7.5S79.4 31 79.4 26.8s9.3-7.5 20.8-7.5 20.8 3.3 20.8 7.5" style="fill: rgb(255, 255, 255);"></path><path d="M116.7 26.4c0 2.7-7.4 5-16.5 5s-16.5-2.2-16.5-5c0-2.7 7.4-5 16.5-5s16.5 2.2 16.5 5M78.9 136.3v40c0 4.2 9.3 7.5 20.8 7.5v-47.5H78.9z" style="fill: rgb(127, 186, 0);"></path><path d="M99.4 183.9h.3c11.5 0 20.8-3.4 20.8-7.5v-40H99.4v47.5z" fill="#bad80a"></path><path d="M120.5 136.3c0 4.2-9.3 7.5-20.8 7.5s-20.8-3.4-20.8-7.5 9.3-7.5 20.8-7.5 20.8 3.4 20.8 7.5" style="fill: rgb(255, 255, 255);"></path><path d="M116.2 135.9c0 2.7-7.4 5-16.5 5s-16.5-2.2-16.5-5c0-2.7 7.4-5 16.5-5s16.5 2.3 16.5 5M25.4 80.5v40c0 4.2 9.3 7.5 20.8 7.5V80.5H25.4z" style="fill: rgb(127, 186, 0);"></path><path d="M45.9 128.1h.3c11.5 0 20.8-3.4 20.8-7.5v-40H45.9v47.5z" fill="#bad80a"></path><path d="M67 80.5c0 4.2-9.3 7.5-20.8 7.5s-20.8-3.4-20.8-7.5c0-4.2 9.3-7.5 20.8-7.5S67 76.4 67 80.5" style="fill: rgb(255, 255, 255);"></path><path d="M62.7 80.1c0 2.7-7.4 5-16.5 5s-16.5-2.2-16.5-5c0-2.7 7.4-5 16.5-5s16.5 2.2 16.5 5m69.1-.1v40c0 4.2 9.3 7.5 20.8 7.5V80h-20.8z" style="fill: rgb(127, 186, 0);"></path><path d="M152.3 127.5h.3c11.5 0 20.8-3.4 20.8-7.5V80h-21.1v47.5z" fill="#bad80a"></path><path d="M173.4 80c0 4.2-9.3 7.5-20.8 7.5s-20.8-3.4-20.8-7.5c0-4.2 9.3-7.5 20.8-7.5s20.8 3.3 20.8 7.5" style="fill: rgb(255, 255, 255);"></path><path d="M169.1 79.6c0 2.7-7.4 5-16.5 5s-16.5-2.2-16.5-5c0-2.7 7.4-5 16.5-5s16.5 2.2 16.5 5" style="fill: rgb(127, 186, 0);"></path></g></svg>