<svg viewBox="0 0 16 16" class="fxs-portal-svg" role="presentation" focusable="false" xmlns:svg="http://www.w3.org/2000/svg" xmlns:xlink="http://www.w3.org/1999/xlink" id="FxSymbol0-041"><g><title></title><path d="M3.137 14.351a7.994 7.994 0 0 1-1.49-11.212A7.983 7.983 0 0 1 8.007 0c1.694 0 3.404.532 4.854 1.648a7.993 7.993 0 0 1 1.491 11.215A7.989 7.989 0 0 1 7.992 16a7.968 7.968 0 0 1-4.855-1.649" style="fill: rgb(57, 153, 198);"></path><path d="M11.599.824a7.883 7.883 0 0 0-1.233-.496c-1.469 2.175-4.03 4.7-6.332 6.646-.017.015-.024.03-.039.045a10.656 10.656 0 0 1-1.163-1.6S1.995 7.392 1.4 9.8c2.651.478 5.108-.359 5.108-.359s-.792-.624-1.695-1.537c2.348-1.812 4.924-4.331 6.786-7.08z" style="fill: rgb(255, 255, 255);"></path><path d="M13.725 4.612s-.432.544-1.515 1.418C10.088 3.628 6.788 2 3.054 1.672a7.532 7.532 0 0 0-1.431 1.449l-.022.031c.327.012.657.035.989.07 3.1.254 5.976 1.87 7.937 4.04-.567.378-1.216.784-1.965 1.21 0 0 2.732.807 5.041 2.469.68-2.889.122-6.329.122-6.329zM8 10.2A1.8 1.8 0 0 0 6.2 12c0 .027.007.053.008.08a12.33 12.33 0 0 1-4.943.295c.325.5.711.97 1.154 1.397a13.546 13.546 0 0 0 4.306-.502A1.8 1.8 0 1 0 8 10.2z" style="fill: rgb(255, 255, 255);"></path></g></svg>