<svg viewBox="0 0 32 50" class="" role="presentation" focusable="false" xmlns:svg="http://www.w3.org/2000/svg" xmlns:xlink="http://www.w3.org/1999/xlink" id="FxSymbol0-071"><g><title></title><path d="M16.008 0a30.5 30.5 0 0 0-7.53 12.2h15.044A30.44 30.44 0 0 0 16.008 0zm8.082 35.433L20 42h-8l-4-6.567" style="fill: rgb(221, 89, 0);"></path><path d="M23.66 20.094l-.016 15.34 8.34 3.7.016-8.6M8.37 20.1l.016 15.34-8.37 3.7L0 30.544" style="fill: rgb(221, 89, 0);"></path><path d="M8.25 35.2V16.344a12.049 12.049 0 0 1 .43-3.94h14.635a10.718 10.718 0 0 1 .436 3.128V35.2H8.25z" style="fill: rgb(229, 229, 229);"></path><path d="M23.124 12.653a10.34 10.34 0 0 1 .376 2.894v19.4h-15v-18.6a12.012 12.012 0 0 1 .37-3.69h14.254m.38-.5H8.49a12.329 12.329 0 0 0-.49 4.19v19.1h16v-19.9a11.1 11.1 0 0 0-.5-3.394zm.5 3.193v.446-.443zm0 .445l.005.555-.009-.558z" style="fill: rgb(221, 89, 0);"></path><circle cx="16" cy="20" r="3.9" style="fill: rgb(57, 153, 198);"></circle><path d="M16.032 1.02C16.017.006 16.008 0 16.008 0a30.405 30.405 0 0 0-7.515 12.14v.013a12.332 12.332 0 0 0-.49 4.19v4.274L0 30.543l.016 8.6 8.083-3.56L12 42h4z" opacity=".2" style="fill: rgb(255, 255, 255);"></path><path d="M19.473 47.74a.773.773 0 0 1-.772-.773v-3.142a.773.773 0 0 1 1.545 0v3.142a.772.772 0 0 1-.772.772zm-6.946.03a.771.771 0 0 1-.772-.77v-3.143a.772.772 0 1 1 1.544 0V47a.772.772 0 0 1-.773.77zM16 50a.772.772 0 0 1-.772-.772v-5.4a.772.772 0 0 1 1.544 0v5.4A.772.772 0 0 1 16 50z" style="fill: rgb(221, 89, 0);"></path><path d="M19.473 45.077a.772.772 0 0 1-.772-.772v-.48a.773.773 0 0 1 1.545 0v.48a.772.772 0 0 1-.772.772zm-6.946.013a.771.771 0 0 1-.772-.77v-.48a.772.772 0 1 1 1.544 0v.48a.772.772 0 0 1-.773.77zm3.473.964a.772.772 0 0 1-.772-.772v-1.456a.772.772 0 1 1 1.544 0v1.456a.772.772 0 0 1-.772.772z" opacity=".2" style="fill: rgb(255, 255, 255);"></path></g></svg>