<svg viewBox="-459 261 40 40" class="" role="presentation" focusable="false" xmlns:svg="http://www.w3.org/2000/svg" xmlns:xlink="http://www.w3.org/1999/xlink" id="FxSymbol0-0d4"><g><title></title><title>AAD_icon</title><path d="M-459 261h40v40h-40z" style="fill: rgb(127, 186, 0);"></path><path d="M-437.8 276.7a4.1 4.1 0 0 1-.6.2v10.3c.374.124.715.328 1 .6l4.6-3.7a2.489 2.489 0 0 1-.1-.9c.018-.374.085-.744.2-1.1l-5.1-5.4zm-7.6 5.4c.204.367.307.781.3 1.2a3.56 3.56 0 0 1-.2 1l4.6 3.7c.284-.223.585-.424.9-.6v-10.5a1.456 1.456 0 0 1-.4-.2l-5.2 5.4z" style="fill: rgb(255, 255, 255);"></path><path d="M-439 265l-16 19 16 13 16-13-16-19zm8.7 20.9a2.445 2.445 0 0 1-1.6-.6l-4.6 3.8c.089.222.124.462.1.7a2.58 2.58 0 0 1-2.56 2.6h-.04a2.52 2.52 0 0 1-2.6-2.6 1.273 1.273 0 0 1 .1-.6l-4.9-3.8a2.3 2.3 0 0 1-1.4.4 2.6 2.6 0 1 1 0-5.2c.418.004.829.107 1.2.3l5.1-5.6a3.586 3.586 0 0 1-.2-1.1 2.58 2.58 0 0 1 2.56-2.6h.04a2.52 2.52 0 0 1 2.6 2.6c.008.419-.096.833-.3 1.2l5 5.6c.406-.194.85-.296 1.3-.3a2.58 2.58 0 0 1 2.6 2.56v.04a2.42 2.42 0 0 1-2.4 2.6z" style="fill: rgb(255, 255, 255);"></path></g></svg>