<svg viewBox="0 0 50 50" class="fxs-portal-svg" role="presentation" focusable="false" xmlns:svg="http://www.w3.org/2000/svg" xmlns:xlink="http://www.w3.org/1999/xlink" id="FxSymbol0-037"><g><title></title><path d="M2.001 45.578v-27.8a2.927 2.927 0 0 1 2.927-2.927h39.145a2.927 2.927 0 0 1 2.928 2.927v27.8h-45z" style="fill: rgb(186, 20, 26);"></path><path d="M44.271 31.609a5.199 5.199 0 1 0 0 10.399A5.157 5.157 0 0 0 47 41.217V32.4a5.16 5.16 0 0 0-2.729-.791z" style="fill: rgb(128, 73, 152);"></path><path d="M37.111 14.851h-3.389V9.997c0-.887-.72-1.608-1.607-1.608h-15.23a1.61 1.61 0 0 0-1.607 1.608v4.854H11.89V9.997A5.003 5.003 0 0 1 16.885 5h15.23a5.002 5.002 0 0 1 4.996 4.997v4.854z" style="fill: rgb(30, 30, 30);"></path><path opacity=".6" d="M19.077 35.804L2 31.731v6.608l15.587 3.717z" style="fill: rgb(254, 224, 135);"></path><path opacity=".8" d="M16.84 19.344c.254 1.656-2.448 3.445-6.035 3.996-3.588.551-6.702-.344-6.956-2-.255-1.656 2.447-3.445 6.035-3.996 3.587-.551 6.702.344 6.956 2" style="fill: rgb(255, 140, 0);"></path><path opacity=".2" d="M44.271 33.274a3.533 3.533 0 0 0 0 7.068A3.511 3.511 0 0 0 47 39.028v-4.44a3.513 3.513 0 0 0-2.729-1.314z" style="fill: rgb(255, 255, 255);"></path><path opacity=".3" d="M2 27.127h45v2.112H2z" style="fill: rgb(30, 30, 30);"></path><path opacity=".3" d="M28.187 25.966c.727 0 1.314.588 1.314 1.314v3.988c0 .726-.587 1.314-1.314 1.314h-7.376a1.313 1.313 0 0 1-1.313-1.314V27.28c0-.726.587-1.314 1.313-1.314h7.376z" style="fill: rgb(30, 30, 30);"></path><path d="M2.001 26.002h45v2.111h-45z" style="fill: rgb(229, 229, 229);"></path></g></svg>