<svg viewBox="0 0 16 16" class="msportalfx-svg-palette-blue fxs-portal-svg" role="presentation" focusable="false" xmlns:svg="http://www.w3.org/2000/svg" xmlns:xlink="http://www.w3.org/1999/xlink" id="FxSymbol0-039"><g><title></title><path d="M15.2 6l-2.3 2.2c-.9.8-1.9.9-3 .6L14 4.9c.6-.6.3-1.8-.3-2.3-.6-.6-1.8-.8-2.4-.3L7.2 6.2c-.3-1-.3-2 .6-2.8l2.3-2.2c1.2-1.2 3.6-1 4.8.2 1.3 1.1 1.5 3.4.3 4.6zM4.7 13.8l4.1-3.9c.3 1 .3 2-.6 2.8l-2.3 2.2c-1.2 1.2-3.5.9-4.8-.3-1.2-1.2-1.5-3.3-.3-4.5l2.3-2.2C4 7 5 7 6 7.3l-4 3.9c-.6.6-.3 1.7.3 2.3.5.5 1.7.9 2.4.3z"></path><path d="M4.5 10.2l5.8-5.5c.3-.3.9-1 1.6-.4.5.5.1 1-.4 1.5l-5.8 5.5c-.5.5-1.3 1.2-1.8.7-.6-.5-.1-1.2.6-1.8z"></path></g></svg>